<svg width="173" height="184" viewBox="0 0 173 184" fill="none" xmlns="http://www.w3.org/2000/svg">
<path d="M114.807 34.3406C91.2794 25.1306 66.7879 30.5031 57.4831 34.3406C47.5136 21.3265 25.581 -2.6996 12.6208 2.80638C2.25259 7.21116 7.13752 72.382 7.13752 72.382C-9.30055 106.5 12.8768 181.5 85.6993 181.5C163.657 181.5 182.199 109 163.657 72.382C163.657 72.382 168.941 8.01203 156.18 2.80638C143.419 -2.39928 123.281 21.6602 114.807 34.3406Z" fill="#FF9829" stroke="#7199FF" stroke-width="4"/>
<path d="M119.5 114.875H96.4997V136.875C96.4997 144.375 77.4997 144.375 77.4997 136.875V114.875H53.4997C47.5002 114.875 47.5 95.875 53.4997 95.875H77.4997V72.875C77.4997 66.375 96.4996 66.375 96.4997 72.875V95.875H119.5C124 95.875 124 114.875 119.5 114.875Z" fill="white" stroke="#7199FF"/>
</svg>
